<svg version="1.1" xmlns="http://www.w3.org/2000/svg" viewBox="0 0 984.4159927368164 794.289306640625" width="984.4159927368164" height="794.289306640625">
  <!-- svg-source:excalidraw -->
  
  <defs>
    <style class="style-fonts">
      @font-face {
        font-family: "Virgil";
        src: url("https://excalidraw.com/Virgil.woff2");
      }
      @font-face {
        font-family: "Cascadia";
        src: url("https://excalidraw.com/Cascadia.woff2");
      }
      @font-face {
        font-family: "Assistant";
        src: url("https://excalidraw.com/Assistant-Regular.woff2");
      }
    </style>
    
  </defs>
  <rect x="0" y="0" width="984.4159927368164" height="794.289306640625" fill="#ffffff"></rect><g stroke-linecap="round" transform="translate(268 10) rotate(0 154.5 86.5)"><path d="M32 0 C108.85 0.39, 182.74 -0.22, 277 0 C296.34 -1.45, 308.51 9.81, 309 32 C312.79 62.95, 306.53 94.35, 309 141 C311.78 165.91, 298.64 176.38, 277 173 C204.26 171.34, 123.78 173.03, 32 173 C11.23 169.92, 3.13 160.63, 0 141 C2.5 114.43, 2.96 90.06, 0 32 C2.65 12.61, 12.21 -1.15, 32 0" stroke="none" stroke-width="0" fill="#ffec99"></path><path d="M32 0 C104.64 1.85, 174.1 1.52, 277 0 M32 0 C108.65 -1.56, 185.77 -1.18, 277 0 M277 0 C297.31 -0.44, 310.16 11.76, 309 32 M277 0 C298.21 1.11, 310.64 8.8, 309 32 M309 32 C307.09 68.41, 308.69 109.03, 309 141 M309 32 C310.2 66.23, 309.26 100.4, 309 141 M309 141 C307.38 162.43, 297.72 173.34, 277 173 M309 141 C311.02 162.96, 296.21 174.89, 277 173 M277 173 C197.61 173.37, 118.25 173.53, 32 173 M277 173 C193.74 174.33, 112.63 174.33, 32 173 M32 173 C10.8 173.71, -0.53 160.83, 0 141 M32 173 C8.41 172.47, 1.14 163.97, 0 141 M0 141 C-0.71 103.75, -2.16 64.98, 0 32 M0 141 C0.16 102.77, 0.23 67.09, 0 32 M0 32 C1.48 11.22, 12.43 0.54, 32 0 M0 32 C1.03 9.55, 11.33 -0.89, 32 0" stroke="#1e1e1e" stroke-width="2" fill="none"></path></g><g transform="translate(273 15) rotate(0 27.34000015258789 12.5)"><text x="0" y="17.52" font-family="Virgil, Segoe UI Emoji" font-size="20px" fill="#1e1e1e" text-anchor="start" style="white-space: pre;" direction="ltr" dominant-baseline="alphabetic"> User</text></g><g stroke-linecap="round" transform="translate(288.38541666666663 59.1434326171875) rotate(0 56.328125 42.5)"><path d="M82.3 4.29 C90.79 6.78, 98.81 12.6, 103.96 18.68 C109.11 24.76, 112.61 33.61, 113.21 40.77 C113.82 47.94, 112.04 55.44, 107.59 61.65 C103.14 67.87, 94.58 74.3, 86.52 78.06 C78.46 81.81, 68.55 83.84, 59.21 84.18 C49.88 84.52, 38.85 83.04, 30.53 80.07 C22.2 77.1, 14.45 72.18, 9.28 66.35 C4.1 60.52, 0.18 52.31, -0.53 45.1 C-1.24 37.88, 0.87 29.35, 5.01 23.05 C9.16 16.76, 16.32 11.15, 24.32 7.32 C32.33 3.48, 42.64 0.08, 53.04 0.03 C63.43 -0.02, 80.2 5.32, 86.68 7.03 C93.15 8.74, 92.2 9.59, 91.88 10.29 M68.67 2.1 C77.36 2.73, 87.11 5.55, 94.03 9.92 C100.95 14.29, 107.36 21.26, 110.21 28.34 C113.06 35.41, 112.9 45.26, 111.13 52.4 C109.35 59.53, 105.98 66.03, 99.58 71.16 C93.17 76.3, 81.99 81.17, 72.71 83.22 C63.43 85.28, 52.63 84.86, 43.89 83.5 C35.16 82.13, 27.17 79.87, 20.3 75.05 C13.42 70.23, 5.75 61.32, 2.63 54.59 C-0.48 47.86, -0.39 41.64, 1.61 34.68 C3.61 27.72, 8.56 18.3, 14.62 12.84 C20.67 7.38, 29.29 3.71, 37.93 1.9 C46.58 0.09, 61.7 2.05, 66.5 1.99 C71.3 1.93, 66.89 1.07, 66.74 1.54" stroke="none" stroke-width="0" fill="#ffec99"></path><path d="M63 -0.32 C72.15 -0.21, 82.84 4.73, 90.29 9.01 C97.73 13.28, 104.01 18.95, 107.66 25.33 C111.31 31.72, 113.14 40.23, 112.19 47.32 C111.23 54.41, 107.53 62.11, 101.93 67.86 C96.33 73.62, 87.25 79.02, 78.58 81.86 C69.92 84.69, 59.27 85.79, 49.92 84.88 C40.57 83.98, 30.01 80.69, 22.48 76.42 C14.96 72.15, 8.58 65.81, 4.76 59.28 C0.94 52.75, -1.64 44.28, -0.45 37.25 C0.74 30.21, 6.3 22.75, 11.9 17.05 C17.51 11.35, 24.1 5.66, 33.15 3.03 C42.21 0.4, 60.38 1.35, 66.24 1.27 C72.1 1.18, 68.66 2.03, 68.33 2.52 M54.22 1.15 C63.35 0.33, 76.6 2.59, 84.75 5.81 C92.9 9.03, 98.37 14.52, 103.14 20.48 C107.92 26.43, 112.86 34.3, 113.4 41.55 C113.93 48.8, 111.15 57.79, 106.36 63.98 C101.56 70.17, 92.71 75.43, 84.64 78.68 C76.57 81.94, 67.06 83.24, 57.95 83.52 C48.84 83.79, 38.44 83.61, 29.99 80.34 C21.55 77.06, 12.21 69.88, 7.28 63.86 C2.34 57.84, 0.55 51.15, 0.4 44.22 C0.25 37.3, 2.04 28.82, 6.37 22.3 C10.7 15.79, 18.09 9.05, 26.37 5.13 C34.64 1.22, 51.1 -0.66, 56.02 -1.21 C60.94 -1.76, 55.8 0.83, 55.9 1.84" stroke="#1e1e1e" stroke-width="2" fill="none"></path></g><g transform="translate(314.16354128694 81.59139441675961) rotate(0 30.720001220703125 20)"><text x="30.720001220703125" y="14.016" font-family="Virgil, Segoe UI Emoji" font-size="16px" fill="#1e1e1e" text-anchor="middle" style="white-space: pre;" direction="ltr" dominant-baseline="alphabetic">Web </text><text x="30.720001220703125" y="34.016" font-family="Virgil, Segoe UI Emoji" font-size="16px" fill="#1e1e1e" text-anchor="middle" style="white-space: pre;" direction="ltr" dominant-baseline="alphabetic">Browser</text></g><g stroke-linecap="round" transform="translate(431.08333333333326 63.1434326171875) rotate(0 56.328125 39.5)"><path d="M30.56 3.69 C38.2 0.53, 51.01 -0.06, 60.53 0.49 C70.05 1.04, 80.09 3.3, 87.68 7 C95.27 10.7, 101.96 16.7, 106.06 22.69 C110.16 28.68, 112.61 36.32, 112.26 42.94 C111.92 49.55, 109.25 56.92, 104 62.37 C98.74 67.82, 89.36 72.85, 80.72 75.62 C72.08 78.39, 61.46 79.47, 52.18 78.98 C42.9 78.49, 32.73 76.27, 25.05 72.66 C17.37 69.06, 10.21 63.29, 6.12 57.35 C2.02 51.4, -0.07 43.55, 0.48 37 C1.03 30.45, 3.35 23.92, 9.43 18.06 C15.52 12.19, 31.67 4.36, 37 1.79 C42.34 -0.79, 41.24 1.77, 41.47 2.6 M63.75 -0.79 C72.58 -0.46, 83.18 5.37, 90.43 9.42 C97.67 13.46, 103.84 17.4, 107.22 23.46 C110.6 29.53, 111.52 39.16, 110.69 45.8 C109.86 52.44, 107.88 58.09, 102.23 63.29 C96.58 68.49, 85.83 74.48, 76.79 76.98 C67.75 79.49, 56.98 79.26, 47.98 78.32 C38.98 77.38, 30.04 75.45, 22.8 71.34 C15.56 67.24, 8.31 59.85, 4.54 53.69 C0.77 47.53, -1.07 40.59, 0.21 34.39 C1.49 28.19, 6.33 21.9, 12.23 16.49 C18.12 11.09, 27.03 4.53, 35.58 1.97 C44.13 -0.58, 59.01 1.31, 63.53 1.17 C68.04 1.03, 62.61 0.73, 62.66 1.13" stroke="none" stroke-width="0" fill="#ffec99"></path><path d="M57.67 -0.52 C66.48 -0.7, 77.05 3.13, 85.1 6.5 C93.14 9.87, 101.45 14.2, 105.94 19.71 C110.43 25.22, 112.25 33.05, 112.02 39.57 C111.79 46.09, 109.25 53.05, 104.55 58.83 C99.85 64.62, 92.1 70.85, 83.83 74.26 C75.56 77.68, 64.33 79.45, 54.91 79.31 C45.49 79.17, 35.26 76.7, 27.31 73.43 C19.35 70.17, 11.64 65.49, 7.19 59.71 C2.74 53.94, 0.43 45.56, 0.59 38.77 C0.75 31.97, 3.27 24.54, 8.15 18.95 C13.02 13.36, 20.53 8.5, 29.83 5.23 C39.13 1.97, 57.45 -0.08, 63.95 -0.64 C70.44 -1.2, 69.1 0.99, 68.79 1.88 M52.53 -0.97 C61.3 -1.63, 72.49 1.19, 80.83 4.42 C89.18 7.65, 97.15 12.87, 102.62 18.41 C108.09 23.96, 112.85 31.06, 113.63 37.7 C114.41 44.35, 111.6 52.21, 107.28 58.29 C102.96 64.37, 95.71 70.95, 87.71 74.2 C79.71 77.44, 68.64 77.46, 59.27 77.77 C49.91 78.07, 39.71 78.99, 31.52 76.03 C23.33 73.07, 15.17 65.9, 10.14 60.01 C5.11 54.12, 1.99 47.39, 1.33 40.72 C0.67 34.04, 1.99 25.53, 6.18 19.98 C10.37 14.43, 18.33 10.78, 26.46 7.4 C34.6 4.03, 50.23 0.88, 55 -0.28 C59.77 -1.44, 55.29 -0.29, 55.09 0.44" stroke="#1e1e1e" stroke-width="2" fill="none"></path></g><g transform="translate(464.72546018138985 92.7127147603187) rotate(0 22.855998992919922 10)"><text x="22.855998992919922" y="14.016" font-family="Virgil, Segoe UI Emoji" font-size="16px" fill="#1e1e1e" text-anchor="middle" style="white-space: pre;" direction="ltr" dominant-baseline="alphabetic">Mobile</text></g><g stroke-linecap="round"><g transform="translate(263.9846968669167 81.49884373866917) rotate(0 -73.27844276977828 -0.707417949696719)"><path d="M-0.24 0.62 C-24.78 0.17, -121.98 -1.11, -146.21 -1.65 M-1.82 -0.09 C-26.58 0.15, -122.97 0.07, -146.98 -0.23" stroke="#1e1e1e" stroke-width="2" fill="none"></path></g><g transform="translate(263.9846968669167 81.49884373866917) rotate(0 -73.27844276977828 -0.707417949696719)"><path d="M-123.44 -8.65 C-131.4 -4.87, -141.9 -0.62, -146.98 -0.23 M-123.44 -8.65 C-128.31 -5.89, -132.66 -5.75, -146.98 -0.23" stroke="#1e1e1e" stroke-width="2" fill="none"></path></g><g transform="translate(263.9846968669167 81.49884373866917) rotate(0 -73.27844276977828 -0.707417949696719)"><path d="M-123.53 8.45 C-131.61 5.63, -142.07 3.29, -146.98 -0.23 M-123.53 8.45 C-128.52 7.75, -132.85 4.43, -146.98 -0.23" stroke="#1e1e1e" stroke-width="2" fill="none"></path></g></g><mask></mask><g stroke-linecap="round" transform="translate(29 55.1434326171875) rotate(0 46 39.5)"><path d="M58.75 10 C63.07 15.8, 67.32 16.75, 80.25 30 M58.75 10 C63.88 14.49, 69.86 19.22, 80.25 30 M80.25 30 C91.32 38.95, 93.93 38.48, 80.25 50 M80.25 30 C94.01 39.68, 92.09 40.37, 80.25 50 M80.25 50 C72.47 58.07, 63.84 64.01, 58.75 69 M80.25 50 C74.95 55.7, 69.68 58.42, 58.75 69 M58.75 69 C48.39 77.98, 47.48 77.94, 35.25 69 M58.75 69 C47.6 80.32, 45.93 79.17, 35.25 69 M35.25 69 C28.16 61.88, 21.62 55.78, 11.75 50 M35.25 69 C27.3 61.79, 17.92 53.93, 11.75 50 M11.75 50 C0.95 39.53, -1.9 39.98, 11.75 30 M11.75 50 C-1.22 42.21, 1.54 42.03, 11.75 30 M11.75 30 C19.03 22.8, 24.37 17.6, 35.25 10 M11.75 30 C19.4 23.09, 27.59 15.73, 35.25 10 M35.25 10 C45.52 1.58, 48.71 -1.93, 58.75 10 M35.25 10 C48.18 -1.91, 47.8 -0.49, 58.75 10" stroke="#1e1e1e" stroke-width="2" fill="none"></path></g><g transform="translate(58.74399948120117 84.8934326171875) rotate(0 16.256000518798828 10)"><text x="16.256000518798828" y="14.016" font-family="Virgil, Segoe UI Emoji" font-size="16px" fill="#1e1e1e" text-anchor="middle" style="white-space: pre;" direction="ltr" dominant-baseline="alphabetic">DNS</text></g><g transform="translate(152 55.1434326171875) rotate(0 47.38399887084961 10)"><text x="0" y="14.016" font-family="Virgil, Segoe UI Emoji" font-size="16px" fill="#1e1e1e" text-anchor="start" style="white-space: pre;" direction="ltr" dominant-baseline="alphabetic">domain name</text></g><g stroke-linecap="round"><g transform="translate(119 102.1434326171875) rotate(0 73.5 0)"><path d="M-0.54 0.64 C23.73 0.79, 121.66 1, 146.16 0.92 M1.38 -0.07 C25.98 -0.25, 124.43 -1, 148.42 -0.72" stroke="#1e1e1e" stroke-width="2" fill="none"></path></g><g transform="translate(119 102.1434326171875) rotate(0 73.5 0)"><path d="M124.93 7.82 C134.12 3.57, 142.71 1.08, 148.42 -0.72 M124.93 7.82 C133.07 5.27, 139.77 2.09, 148.42 -0.72" stroke="#1e1e1e" stroke-width="2" fill="none"></path></g><g transform="translate(119 102.1434326171875) rotate(0 73.5 0)"><path d="M124.94 -9.28 C134.13 -7.62, 142.72 -4.2, 148.42 -0.72 M124.94 -9.28 C133.12 -6.43, 139.81 -4.19, 148.42 -0.72" stroke="#1e1e1e" stroke-width="2" fill="none"></path></g></g><mask></mask><g transform="translate(151 111.1434326171875) rotate(0 44.592002868652344 10)"><text x="0" y="14.016" font-family="Virgil, Segoe UI Emoji" font-size="16px" fill="#1e1e1e" text-anchor="start" style="white-space: pre;" direction="ltr" dominant-baseline="alphabetic">IP address</text></g><g stroke-linecap="round"><g transform="translate(422 186.1434326171875) rotate(0 0 47.5)"><path d="M-0.57 -0.57 C-0.64 15.1, 0.47 78.87, 0.57 94.8 M1.33 1.75 C1.07 17.54, 0.27 80.47, -0.08 96.23" stroke="#1e1e1e" stroke-width="2" fill="none"></path></g><g transform="translate(422 186.1434326171875) rotate(0 0 47.5)"><path d="M-8.24 72.6 C-5.92 82.62, -2.19 90.69, -0.08 96.23 M-8.24 72.6 C-5.3 80.4, -3.03 87.41, -0.08 96.23" stroke="#1e1e1e" stroke-width="2" fill="none"></path></g><g transform="translate(422 186.1434326171875) rotate(0 0 47.5)"><path d="M8.86 72.89 C4.64 82.71, 1.84 90.68, -0.08 96.23 M8.86 72.89 C6.62 80.71, 3.72 87.64, -0.08 96.23" stroke="#1e1e1e" stroke-width="2" fill="none"></path></g></g><mask></mask><g transform="translate(445 222.537841796875) rotate(0 35.41600036621094 10)"><text x="0" y="14.016" font-family="Virgil, Segoe UI Emoji" font-size="16px" fill="#1e1e1e" text-anchor="start" style="white-space: pre;" direction="ltr" dominant-baseline="alphabetic">Public IP</text></g><g stroke-linecap="round" transform="translate(381 285.101318359375) rotate(0 43 42)"><path d="M21 0 C34.66 -1.2, 51.37 -0.74, 65 0 M21 0 C36.34 -0.97, 52.71 -0.53, 65 0 M65 0 C78.25 1.73, 84.01 5.49, 86 21 M65 0 C80.89 -0.75, 84.75 5.38, 86 21 M86 21 C84.98 28.8, 85.97 39.88, 86 63 M86 21 C86.95 37.17, 86.92 53.19, 86 63 M86 63 C86.6 77.36, 78 83.19, 65 84 M86 63 C84.01 75.22, 78.81 83.88, 65 84 M65 84 C53.89 83.59, 44.14 84.97, 21 84 M65 84 C47.66 83.9, 30.41 84.8, 21 84 M21 84 C6.47 85.12, -0.24 75.76, 0 63 M21 84 C5.51 81.78, 0.56 76.08, 0 63 M0 63 C-0.16 50.26, 0.63 39.69, 0 21 M0 63 C-0.6 47.56, -0.47 34.28, 0 21 M0 21 C0.36 5.79, 7.13 1.54, 21 0 M0 21 C-1.34 5.17, 6.41 1.05, 21 0" stroke="#1e1e1e" stroke-width="2" fill="none"></path></g><g transform="translate(389.8400001525879 307.101318359375) rotate(0 34.15999984741211 20)"><text x="34.15999984741211" y="14.016" font-family="Virgil, Segoe UI Emoji" font-size="16px" fill="#1e1e1e" text-anchor="middle" style="white-space: pre;" direction="ltr" dominant-baseline="alphabetic">Load</text><text x="34.15999984741211" y="34.016" font-family="Virgil, Segoe UI Emoji" font-size="16px" fill="#1e1e1e" text-anchor="middle" style="white-space: pre;" direction="ltr" dominant-baseline="alphabetic">Balancer</text></g><g stroke-linecap="round"><g transform="translate(424 369.8560791015625) rotate(0 0.5 34)"><path d="M-0.37 -0.98 C-0.05 10.35, 1.55 57.1, 1.75 68.6 M1.64 1.11 C1.88 12.04, 1.48 55.42, 1.2 66.8" stroke="#1e1e1e" stroke-width="2" fill="none"></path></g><g transform="translate(424 369.8560791015625) rotate(0 0.5 34)"><path d="M-6.99 43.18 C-6.18 51.19, -1.2 56.39, 1.2 66.8 M-6.99 43.18 C-4.04 51.36, -1.62 57.54, 1.2 66.8" stroke="#1e1e1e" stroke-width="2" fill="none"></path></g><g transform="translate(424 369.8560791015625) rotate(0 0.5 34)"><path d="M10.11 43.44 C6.04 51.33, 6.15 56.46, 1.2 66.8 M10.11 43.44 C7.85 51.46, 5.06 57.56, 1.2 66.8" stroke="#1e1e1e" stroke-width="2" fill="none"></path></g></g><mask></mask><g stroke-linecap="round" transform="translate(314 442.8560791015625) rotate(0 37.5 57.5)"><path d="M18.75 0 C26.71 -0.31, 37.55 1.35, 56.25 0 M18.75 0 C29.43 -0.3, 39.81 0.35, 56.25 0 M56.25 0 C68.3 0.13, 73.77 6.79, 75 18.75 M56.25 0 C69.24 -1.26, 73.5 5.27, 75 18.75 M75 18.75 C73.83 36.23, 75.49 51.67, 75 96.25 M75 18.75 C74.88 40.02, 76.22 63.11, 75 96.25 M75 96.25 C76.12 109.19, 69.81 116.74, 56.25 115 M75 96.25 C76.21 108.03, 68.27 113.98, 56.25 115 M56.25 115 C44.56 116.28, 32.39 115.38, 18.75 115 M56.25 115 C45.23 115.69, 35.56 115.11, 18.75 115 M18.75 115 C6.35 113.55, 0.37 107.42, 0 96.25 M18.75 115 C6.24 115.61, -0.2 107.24, 0 96.25 M0 96.25 C2.08 64.31, 0.99 34.74, 0 18.75 M0 96.25 C0.54 77.99, 0.47 59, 0 18.75 M0 18.75 C1.26 5.39, 5.7 0.93, 18.75 0 M0 18.75 C-1.52 5.35, 4.21 -1.98, 18.75 0" stroke="#1e1e1e" stroke-width="2" fill="none"></path></g><g transform="translate(322.4759998321533 480.3560791015625) rotate(0 29.02400016784668 20)"><text x="29.02400016784668" y="14.016" font-family="Virgil, Segoe UI Emoji" font-size="16px" fill="#1e1e1e" text-anchor="middle" style="white-space: pre;" direction="ltr" dominant-baseline="alphabetic">Web</text><text x="29.02400016784668" y="34.016" font-family="Virgil, Segoe UI Emoji" font-size="16px" fill="#1e1e1e" text-anchor="middle" style="white-space: pre;" direction="ltr" dominant-baseline="alphabetic">Servers</text></g><g stroke-linecap="round" transform="translate(391.5 442.3560791015625) rotate(0 37.5 57.5)"><path d="M18.75 0 C29.39 -0.6, 42.21 -1.57, 56.25 0 M18.75 0 C30.62 0.6, 40.44 1.08, 56.25 0 M56.25 0 C66.84 0.94, 75.64 4.33, 75 18.75 M56.25 0 C70.63 0.31, 75.2 7.85, 75 18.75 M75 18.75 C72.99 34.54, 72.95 50.22, 75 96.25 M75 18.75 C75.49 43.21, 75.11 68.18, 75 96.25 M75 96.25 C75.79 108.71, 69.35 113.33, 56.25 115 M75 96.25 C73.13 108.68, 67.31 115.58, 56.25 115 M56.25 115 C45.69 114.46, 32.55 113.47, 18.75 115 M56.25 115 C45.25 115.04, 33.95 114.17, 18.75 115 M18.75 115 C6.51 116.32, 0.55 110.15, 0 96.25 M18.75 115 C6.16 116.26, 1.68 108.74, 0 96.25 M0 96.25 C0.33 77.81, 0.63 60.86, 0 18.75 M0 96.25 C-1.17 67.71, 0.56 40.83, 0 18.75 M0 18.75 C-1.64 5.01, 7.73 0.49, 18.75 0 M0 18.75 C-1.51 7.51, 4.51 0.11, 18.75 0" stroke="#1e1e1e" stroke-width="2" fill="none"></path></g><g transform="translate(399.9759998321533 479.8560791015625) rotate(0 29.02400016784668 20)"><text x="29.02400016784668" y="14.016" font-family="Virgil, Segoe UI Emoji" font-size="16px" fill="#1e1e1e" text-anchor="middle" style="white-space: pre;" direction="ltr" dominant-baseline="alphabetic">Web</text><text x="29.02400016784668" y="34.016" font-family="Virgil, Segoe UI Emoji" font-size="16px" fill="#1e1e1e" text-anchor="middle" style="white-space: pre;" direction="ltr" dominant-baseline="alphabetic">Servers</text></g><g stroke-linecap="round" transform="translate(466.5 440.3560791015625) rotate(0 37.5 57.5)"><path d="M18.75 0 C31.97 0.56, 46.77 0.25, 56.25 0 M18.75 0 C30.97 -0.36, 41.57 -0.68, 56.25 0 M56.25 0 C70.43 1.54, 73.36 5.01, 75 18.75 M56.25 0 C70.45 0.57, 73.49 7.51, 75 18.75 M75 18.75 C75.77 37.01, 73.6 52.25, 75 96.25 M75 18.75 C76.09 41.39, 74.82 64.4, 75 96.25 M75 96.25 C74.73 109.98, 67.17 115.09, 56.25 115 M75 96.25 C74.14 109.3, 70.36 115.63, 56.25 115 M56.25 115 C47.22 114.24, 34.93 115.58, 18.75 115 M56.25 115 C43.97 115.21, 32.59 114.8, 18.75 115 M18.75 115 C5.3 115.49, -0.96 107.14, 0 96.25 M18.75 115 C6.77 113.88, -1.2 106.92, 0 96.25 M0 96.25 C1.78 79.58, -0.16 61.12, 0 18.75 M0 96.25 C-0.27 73.25, 0.04 50.53, 0 18.75 M0 18.75 C0.19 7.6, 8.12 1.2, 18.75 0 M0 18.75 C0.2 8.37, 4.17 1.43, 18.75 0" stroke="#1e1e1e" stroke-width="2" fill="none"></path></g><g transform="translate(474.9759998321533 477.8560791015625) rotate(0 29.02400016784668 20)"><text x="29.02400016784668" y="14.016" font-family="Virgil, Segoe UI Emoji" font-size="16px" fill="#1e1e1e" text-anchor="middle" style="white-space: pre;" direction="ltr" dominant-baseline="alphabetic">Web</text><text x="29.02400016784668" y="34.016" font-family="Virgil, Segoe UI Emoji" font-size="16px" fill="#1e1e1e" text-anchor="middle" style="white-space: pre;" direction="ltr" dominant-baseline="alphabetic">Servers</text></g><g stroke-linecap="round"><g transform="translate(509 559.8560791015625) rotate(0 17 28.5)"><path d="M0.12 -0.51 C5.74 8.96, 29.06 46.34, 34.86 55.85 M-1.28 -1.83 C4.17 7.84, 28.38 46.87, 34.36 56.79" stroke="#1e1e1e" stroke-width="2" fill="none"></path></g><g transform="translate(509 559.8560791015625) rotate(0 17 28.5)"><path d="M14.81 41.22 C21.49 48.74, 28.11 54.94, 34.36 56.79 M14.81 41.22 C19.76 46, 24.35 49.17, 34.36 56.79" stroke="#1e1e1e" stroke-width="2" fill="none"></path></g><g transform="translate(509 559.8560791015625) rotate(0 17 28.5)"><path d="M29.4 32.29 C30.28 43.33, 31.18 53.02, 34.36 56.79 M29.4 32.29 C30.41 39.34, 31.12 44.89, 34.36 56.79" stroke="#1e1e1e" stroke-width="2" fill="none"></path></g></g><mask></mask><g stroke-linecap="round" transform="translate(533 622.8560791015625) rotate(0 34.5 37.5)"><path d="M17.25 0 C28.94 1.67, 36.5 -1.6, 51.75 0 M17.25 0 C25.5 -0.07, 31.07 -0.43, 51.75 0 M51.75 0 C61.35 -0.32, 67.31 5.62, 69 17.25 M51.75 0 C63.83 0.36, 68.42 5.52, 69 17.25 M69 17.25 C70.75 32.98, 67.27 49.66, 69 57.75 M69 17.25 C69.49 30.42, 68.39 45.44, 69 57.75 M69 57.75 C68.38 70.57, 63.59 74.68, 51.75 75 M69 57.75 C70.19 70.53, 61.01 77.27, 51.75 75 M51.75 75 C43.19 72.78, 35.81 74.18, 17.25 75 M51.75 75 C45.09 74.82, 37.2 75.39, 17.25 75 M17.25 75 C6 76.13, -0.41 68.59, 0 57.75 M17.25 75 C6.62 73.71, -1.06 68.95, 0 57.75 M0 57.75 C0.19 42.74, -0.3 27.8, 0 17.25 M0 57.75 C-0.69 45.51, 0.55 33.46, 0 17.25 M0 17.25 C0.38 4.66, 6.84 -0.13, 17.25 0 M0 17.25 C-1.85 6.4, 7.21 0.75, 17.25 0" stroke="#1e1e1e" stroke-width="2" fill="none"></path></g><g transform="translate(540.3240013122559 650.3560791015625) rotate(0 27.17599868774414 10)"><text x="27.17599868774414" y="14.016" font-family="Virgil, Segoe UI Emoji" font-size="16px" fill="#1e1e1e" text-anchor="middle" style="white-space: pre;" direction="ltr" dominant-baseline="alphabetic">Caches</text></g><g transform="translate(616 631.8560791015625) rotate(0 70.12000274658203 20)"><text x="0" y="14.016" font-family="Virgil, Segoe UI Emoji" font-size="16px" fill="#1e1e1e" text-anchor="start" style="white-space: pre;" direction="ltr" dominant-baseline="alphabetic">For instant</text><text x="0" y="34.016" font-family="Virgil, Segoe UI Emoji" font-size="16px" fill="#1e1e1e" text-anchor="start" style="white-space: pre;" direction="ltr" dominant-baseline="alphabetic">retrieval of URLs</text></g><g stroke-linecap="round"><g transform="translate(541 490.8560791015625) rotate(0 85.5 0)"><path d="M-0.16 0.47 C28.41 0.53, 142.65 1.13, 171.37 0.95 M-1.71 -0.32 C26.75 -0.64, 141.67 -0.79, 170.61 -0.68" stroke="#1e1e1e" stroke-width="2" fill="none"></path></g><g transform="translate(541 490.8560791015625) rotate(0 85.5 0)"><path d="M147.11 7.86 C154.78 5.98, 162.5 4.72, 170.61 -0.68 M147.11 7.86 C152.61 6.36, 158.05 3.84, 170.61 -0.68" stroke="#1e1e1e" stroke-width="2" fill="none"></path></g><g transform="translate(541 490.8560791015625) rotate(0 85.5 0)"><path d="M147.12 -9.24 C154.88 -6.08, 162.59 -2.3, 170.61 -0.68 M147.12 -9.24 C152.66 -6.53, 158.09 -4.83, 170.61 -0.68" stroke="#1e1e1e" stroke-width="2" fill="none"></path></g></g><mask></mask><g stroke-linecap="round" transform="translate(710 452.8560791015625) rotate(0 60 38)"><path d="M19 0 C38.39 1.28, 52 0.34, 101 0 M19 0 C40.27 0.61, 60.33 0.91, 101 0 M101 0 C114.61 -1.12, 118.21 7.7, 120 19 M101 0 C112.89 -1.12, 120.37 8.27, 120 19 M120 19 C119.9 31.05, 119.65 41.94, 120 57 M120 19 C119.74 28.82, 118.91 39.42, 120 57 M120 57 C118.42 69.85, 114.35 74.49, 101 76 M120 57 C120.42 69.25, 112.88 78.08, 101 76 M101 76 C72.35 76.57, 44.37 78.58, 19 76 M101 76 C79.03 75.59, 58.91 76.88, 19 76 M19 76 C7.65 75.32, -1.81 68.8, 0 57 M19 76 C6.59 76, 1.32 68.96, 0 57 M0 57 C0.25 44.11, -0.66 35.23, 0 19 M0 57 C0.27 48.86, -0.85 39.18, 0 19 M0 19 C-0.24 5.23, 6.64 1.34, 19 0 M0 19 C0.75 6.21, 4.55 0.27, 19 0" stroke="#1e1e1e" stroke-width="2" fill="none"></path></g><g transform="translate(742.1520004272461 470.8560791015625) rotate(0 27.847999572753906 20)"><text x="27.847999572753906" y="14.016" font-family="Virgil, Segoe UI Emoji" font-size="16px" fill="#1e1e1e" text-anchor="middle" style="white-space: pre;" direction="ltr" dominant-baseline="alphabetic">Session</text><text x="27.847999572753906" y="34.016" font-family="Virgil, Segoe UI Emoji" font-size="16px" fill="#1e1e1e" text-anchor="middle" style="white-space: pre;" direction="ltr" dominant-baseline="alphabetic">State</text></g><g transform="translate(852 471.289306640625) rotate(0 61.2079963684082 10)"><text x="0" y="14.016" font-family="Virgil, Segoe UI Emoji" font-size="16px" fill="#1e1e1e" text-anchor="start" style="white-space: pre;" direction="ltr" dominant-baseline="alphabetic">Stateless deign</text></g><g stroke-linecap="round"><g transform="translate(337.0000000000002 561.289306640625) rotate(0 -33.000000000000114 49)"><path d="M-0.32 0.45 C-11.52 16.76, -55.35 81.65, -66.45 97.77 M1.71 -0.36 C-9.76 16.14, -56.6 82.79, -67.64 99.18" stroke="#1e1e1e" stroke-width="2" fill="none"></path></g><g transform="translate(337.0000000000002 561.289306640625) rotate(0 -33.000000000000114 49)"><path d="M-61.33 74.99 C-62.89 83.03, -66.32 91.02, -67.64 99.18 M-61.33 74.99 C-63.72 81.07, -64.17 86.28, -67.64 99.18" stroke="#1e1e1e" stroke-width="2" fill="none"></path></g><g transform="translate(337.0000000000002 561.289306640625) rotate(0 -33.000000000000114 49)"><path d="M-47.25 84.71 C-53.93 89.17, -62.48 93.63, -67.64 99.18 M-47.25 84.71 C-52.78 88.66, -56.44 91.65, -67.64 99.18" stroke="#1e1e1e" stroke-width="2" fill="none"></path></g></g><mask></mask><g stroke-linecap="round" transform="translate(211 664.289306640625) rotate(0 71 60)"><path d="M30 0 C51.17 0.76, 71.91 1.32, 112 0 M30 0 C63.03 -0.97, 94.2 -0.36, 112 0 M112 0 C130.02 1.29, 141.07 11.24, 142 30 M112 0 C131.97 2.23, 143.53 10.32, 142 30 M142 30 C143.18 51.84, 144.23 75.94, 142 90 M142 30 C141.6 51.22, 142.29 75.1, 142 90 M142 90 C141.41 109.54, 132.23 121.92, 112 120 M142 90 C139.99 108.73, 132.73 120.2, 112 120 M112 120 C89.4 120.55, 68.75 121.94, 30 120 M112 120 C93.84 119.66, 76.61 119.41, 30 120 M30 120 C9.52 121.4, -1.38 109.9, 0 90 M30 120 C11 117.74, 1.03 110.44, 0 90 M0 90 C-0.21 76.42, 2.35 59.69, 0 30 M0 90 C-0.05 73.26, -1.01 55.81, 0 30 M0 30 C1.33 11.02, 11.32 -0.19, 30 0 M0 30 C-0.79 9.03, 10.41 -1.67, 30 0" stroke="#1e1e1e" stroke-width="2" fill="none"></path></g><g transform="translate(244 704.289306640625) rotate(0 39.552001953125 30)"><text x="0" y="14.016" font-family="Virgil, Segoe UI Emoji" font-size="16px" fill="#1e1e1e" text-anchor="start" style="white-space: pre;" direction="ltr" dominant-baseline="alphabetic">Database</text><text x="0" y="34.016" font-family="Virgil, Segoe UI Emoji" font-size="16px" fill="#1e1e1e" text-anchor="start" style="white-space: pre;" direction="ltr" dominant-baseline="alphabetic">(shards)</text><text x="0" y="54.016" font-family="Virgil, Segoe UI Emoji" font-size="16px" fill="#1e1e1e" text-anchor="start" style="white-space: pre;" direction="ltr" dominant-baseline="alphabetic">(NoSQL)</text></g><g stroke-linecap="round"><g transform="translate(308 485.289306640625) rotate(0 -42.5 1.5)"><path d="M-0.14 -0.31 C-14.35 0.26, -70.23 3.28, -84.51 3.82 M-1.67 -1.51 C-16.07 -1.32, -71.59 1.18, -85.21 2.13" stroke="#1e1e1e" stroke-width="2" fill="none"></path></g><g transform="translate(308 485.289306640625) rotate(0 -42.5 1.5)"><path d="M-62.22 -7.69 C-71.09 -3.32, -77.6 -1.9, -85.21 2.13 M-62.22 -7.69 C-69.38 -4.25, -74.91 -2.21, -85.21 2.13" stroke="#1e1e1e" stroke-width="2" fill="none"></path></g><g transform="translate(308 485.289306640625) rotate(0 -42.5 1.5)"><path d="M-61.28 9.38 C-70.56 7.52, -77.42 2.69, -85.21 2.13 M-61.28 9.38 C-68.79 7.78, -74.6 4.78, -85.21 2.13" stroke="#1e1e1e" stroke-width="2" fill="none"></path></g></g><mask></mask><g stroke-linecap="round" transform="translate(87 444.289306640625) rotate(0 68.5 73)"><path d="M32 0 C53.01 -0.04, 73.01 -0.38, 105 0 M32 0 C58.64 -0.35, 85.94 0.08, 105 0 M105 0 C124.36 1.81, 138.36 11.64, 137 32 M105 0 C124.95 -1.28, 134.91 11.08, 137 32 M137 32 C136.19 61.64, 139.09 92.05, 137 114 M137 32 C138.18 53.62, 138.1 74.33, 137 114 M137 114 C137.89 133.77, 125.35 145.94, 105 146 M137 114 C134.71 133.36, 128.42 147.51, 105 146 M105 146 C78.89 147.88, 54.76 146.65, 32 146 M105 146 C86.6 145.04, 70.77 145.86, 32 146 M32 146 C10.02 146.96, 0.02 134.22, 0 114 M32 146 C12.89 148.11, 1.39 137.21, 0 114 M0 114 C-1.97 96.8, 1.43 78.6, 0 32 M0 114 C0.16 82.58, -0.03 50.52, 0 32 M0 32 C-1.84 8.86, 11.07 -0.76, 32 0 M0 32 C0.66 10.55, 11.86 -1.25, 32 0" stroke="#1e1e1e" stroke-width="2" fill="none"></path></g><g transform="translate(98.43600463867188 497.289306640625) rotate(0 57.063995361328125 20)"><text x="57.063995361328125" y="14.016" font-family="Virgil, Segoe UI Emoji" font-size="16px" fill="#1e1e1e" text-anchor="middle" style="white-space: pre;" direction="ltr" dominant-baseline="alphabetic">URL Shortener</text><text x="57.063995361328125" y="34.016" font-family="Virgil, Segoe UI Emoji" font-size="16px" fill="#1e1e1e" text-anchor="middle" style="white-space: pre;" direction="ltr" dominant-baseline="alphabetic">Service</text></g><g stroke-linecap="round"><g transform="translate(96 583.289306640625) rotate(0 -18 30.5)"><path d="M0.67 0.15 C-5.47 10.37, -29.93 50.33, -35.93 60.45 M-0.44 -0.82 C-6.81 9.63, -30.96 51.21, -36.84 61.7" stroke="#1e1e1e" stroke-width="2" fill="none"></path></g><g transform="translate(96 583.289306640625) rotate(0 -18 30.5)"><path d="M-32.59 37.06 C-34.12 46.5, -36.89 56.82, -36.84 61.7 M-32.59 37.06 C-33.63 44.87, -34.47 50.79, -36.84 61.7" stroke="#1e1e1e" stroke-width="2" fill="none"></path></g><g transform="translate(96 583.289306640625) rotate(0 -18 30.5)"><path d="M-17.75 45.56 C-24.82 51.88, -33.19 58.98, -36.84 61.7 M-17.75 45.56 C-23.15 51, -28.29 54.47, -36.84 61.7" stroke="#1e1e1e" stroke-width="2" fill="none"></path></g></g><mask></mask><g stroke-linecap="round" transform="translate(10 648.289306640625) rotate(0 48 49.5)"><path d="M24 0 C37.46 0.11, 53.35 -0.38, 72 0 M24 0 C33.55 -0.57, 43.37 -0.6, 72 0 M72 0 C86.44 -0.21, 94.55 7.5, 96 24 M72 0 C86.1 -1.9, 94.41 10.07, 96 24 M96 24 C95.5 40.83, 97.03 57.3, 96 75 M96 24 C95.67 41.09, 95.25 60.94, 96 75 M96 75 C97.96 92.14, 86.02 99.84, 72 99 M96 75 C94.29 89.16, 86 99.66, 72 99 M72 99 C61.08 100.8, 48.48 97.88, 24 99 M72 99 C57.68 98.03, 45.86 99.47, 24 99 M24 99 C6.13 100.11, -1.57 90.45, 0 75 M24 99 C6.86 97.9, 1.9 88.73, 0 75 M0 75 C1.85 59.75, -0.93 43.27, 0 24 M0 75 C-0.49 59.46, 0.29 44.89, 0 24 M0 24 C-0.84 6.82, 7.63 1.43, 24 0 M0 24 C-0.45 5.77, 6.65 -1.98, 24 0" stroke="#1e1e1e" stroke-width="2" fill="none"></path></g><g transform="translate(40.624000549316406 687.789306640625) rotate(0 17.375999450683594 10)"><text x="17.375999450683594" y="14.016" font-family="Virgil, Segoe UI Emoji" font-size="16px" fill="#1e1e1e" text-anchor="middle" style="white-space: pre;" direction="ltr" dominant-baseline="alphabetic">Keys</text></g></svg>